<?xml version="1.0" encoding="UTF-8"?>
<svg width="700pt" height="700pt" version="1.1" viewBox="0 0 700 700" xmlns="http://www.w3.org/2000/svg">
 <g>
  <path d="m443.33 46.668v-23.332c0-14-9.332-23.332-23.332-23.332h-210l46.668 46.668z"/>
  <path d="m256.67 140c0 51.332 42 93.332 93.332 93.332s93.332-42 93.332-93.332v-70h-186.67l-46.668 46.668h46.668z"/>
  <path d="m513.33 256.67-280 280v23.332h233.33v-163.33c0-14 9.332-23.332 23.332-23.332s23.332 9.332 23.332 23.332v163.33h70l0.003906-221.67c0-42-30.332-74.664-70-81.664z"/>
  <path d="m233.33 466.67 210-210h-245c-44.332 0-81.668 37.332-81.668 81.668v221.67h70v-163.33c0-14 9.332-23.332 23.332-23.332s23.332 9.332 23.332 23.332zm46.668-163.34c14 0 23.332 9.332 23.332 23.332s-9.332 23.332-23.332 23.332-23.332-9.332-23.332-23.332c0-13.996 9.332-23.332 23.332-23.332z"/>
 </g>
</svg>
